<svg width="14" height="13" viewBox="0 0 14 13" fill="none" xmlns="http://www.w3.org/2000/svg">
<path fill-rule="evenodd" clip-rule="evenodd" d="M12.5206 6.37867C12.5206 6.65481 12.2968 6.87867 12.0206 6.87867H0.706915C0.430773 6.87867 0.206915 6.65481 0.206915 6.37867C0.206916 6.10253 0.430773 5.87867 0.706915 5.87867H12.0206C12.2968 5.87867 12.5206 6.10253 12.5206 6.37867Z" fill="#333333"/>
<path fill-rule="evenodd" clip-rule="evenodd" d="M7.02362 0.768919C7.24492 0.547622 7.60371 0.547622 7.82501 0.768919L13.034 5.97794C13.2553 6.19924 13.2553 6.55803 13.034 6.77933L7.82501 11.9883C7.60371 12.2096 7.24492 12.2096 7.02362 11.9883C6.80233 11.767 6.80233 11.4083 7.02362 11.187L11.8319 6.37863L7.02362 1.57031C6.80233 1.34901 6.80233 0.990216 7.02362 0.768919Z" fill="#333333"/>
</svg>
