<svg width="13" height="13" viewBox="0 0 13 13" fill="none" xmlns="http://www.w3.org/2000/svg">
<path fill-rule="evenodd" clip-rule="evenodd" d="M10.8389 2.13174C11.0342 2.327 11.0342 2.64358 10.8389 2.83885L2.8389 10.8388C2.64364 11.0341 2.32706 11.0341 2.1318 10.8388C1.93653 10.6436 1.93653 10.327 2.1318 10.1317L10.1318 2.13174C10.3271 1.93648 10.6436 1.93648 10.8389 2.13174Z" fill="white"/>
<path fill-rule="evenodd" clip-rule="evenodd" d="M2.98535 2.05196C2.98535 1.739 3.23906 1.48529 3.55202 1.48529L10.9187 1.48529C11.2316 1.48529 11.4854 1.739 11.4854 2.05196L11.4854 9.41863C11.4854 9.73159 11.2316 9.98529 10.9187 9.98529C10.6057 9.98529 10.352 9.73159 10.352 9.41863L10.352 2.61863L3.55202 2.61862C3.23906 2.61862 2.98535 2.36492 2.98535 2.05196Z" fill="white"/>
</svg>
