<svg width="14" height="13" viewBox="0 0 14 13" fill="none" xmlns="http://www.w3.org/2000/svg">
<path fill-rule="evenodd" clip-rule="evenodd" d="M12.6569 6.37867C12.6569 6.65481 12.433 6.87867 12.1569 6.87867H0.843146C0.567003 6.87867 0.343146 6.65481 0.343146 6.37867C0.343146 6.10253 0.567003 5.87867 0.843145 5.87867H12.1569C12.433 5.87867 12.6569 6.10253 12.6569 6.37867Z" fill="white"/>
<path fill-rule="evenodd" clip-rule="evenodd" d="M7.15985 0.768919C7.38115 0.547622 7.73994 0.547622 7.96124 0.768919L13.1703 5.97794C13.3916 6.19924 13.3916 6.55803 13.1703 6.77933L7.96124 11.9883C7.73994 12.2096 7.38115 12.2096 7.15985 11.9883C6.93856 11.767 6.93856 11.4083 7.15985 11.187L11.9682 6.37863L7.15985 1.57031C6.93856 1.34901 6.93856 0.990216 7.15985 0.768919Z" fill="white"/>
</svg>
