<svg width="24" height="24" viewBox="0 0 24 24" fill="none" xmlns="http://www.w3.org/2000/svg">
<path fill-rule="evenodd" clip-rule="evenodd" d="M2 8.28571C2 7.94472 2.14298 7.6177 2.3975 7.37658C2.65201 7.13546 2.99721 7 3.35714 7H19.6429C20.0028 7 20.348 7.13546 20.6025 7.37658C20.857 7.6177 21 7.94472 21 8.28571C21 8.62671 20.857 8.95373 20.6025 9.19485C20.348 9.43597 20.0028 9.57143 19.6429 9.57143H3.35714C2.99721 9.57143 2.65201 9.43597 2.3975 9.19485C2.14298 8.95373 2 8.62671 2 8.28571ZM2 14.7143C2 14.3733 2.14298 14.0463 2.3975 13.8051C2.65201 13.564 2.99721 13.4286 3.35714 13.4286H19.6429C20.0028 13.4286 20.348 13.564 20.6025 13.8051C20.857 14.0463 21 14.3733 21 14.7143C21 15.0553 20.857 15.3823 20.6025 15.6234C20.348 15.8645 20.0028 16 19.6429 16H3.35714C2.99721 16 2.65201 15.8645 2.3975 15.6234C2.14298 15.3823 2 15.0553 2 14.7143Z" fill="#333333"/>
</svg>
