<svg width="50" height="41" viewBox="0 0 50 41" fill="none" xmlns="http://www.w3.org/2000/svg">
<path d="M44.7506 10.0849C44.781 10.5244 44.781 10.9639 44.781 11.4074C44.781 24.9227 34.4921 40.51 15.6784 40.51V40.5019C10.1208 40.51 4.67861 38.9181 0 35.9165C0.808123 36.0137 1.6203 36.0623 2.4345 36.0643C7.04019 36.0684 11.5142 34.523 15.1376 31.6773C10.7608 31.5943 6.92272 28.7406 5.58192 24.5744C7.11513 24.8701 8.69492 24.8093 10.1998 24.3982C5.428 23.4341 1.99499 19.2416 1.99499 14.3726C1.99499 14.328 1.99499 14.2855 1.99499 14.2429C3.4168 15.0349 5.00874 15.4744 6.63714 15.523C2.14284 12.5194 0.757489 6.54046 3.47149 1.8659C8.66454 8.25595 16.3265 12.1406 24.5516 12.5518C23.7272 8.99926 24.8533 5.27663 27.5106 2.77934C31.6302 -1.09317 38.1094 -0.894683 41.9819 3.2229C44.2726 2.77124 46.4681 1.93071 48.4773 0.739792C47.7137 3.10745 46.1157 5.11865 43.981 6.39666C46.0083 6.15766 47.9892 5.61486 49.8545 4.78649C48.4813 6.84426 46.7517 8.63672 44.7506 10.0849Z" fill="white"/>
</svg>
