<svg width="43" height="42" viewBox="0 0 43 42" fill="none" xmlns="http://www.w3.org/2000/svg">
<path fill-rule="evenodd" clip-rule="evenodd" d="M9.75974 41.0891V13.3649H0.544739V41.0891H9.75974V41.0891ZM5.1522 9.57966C8.36566 9.57966 10.3658 7.45074 10.3658 4.79023C10.3059 2.06982 8.36566 -1.58861e-05 5.21316 -1.58861e-05C2.06098 -1.58861e-05 0 2.06982 0 4.79023C0 7.45074 1.99968 9.57966 5.09214 9.57966H5.15202H5.1522Z" fill="white"/>
<path fill-rule="evenodd" clip-rule="evenodd" d="M14.8589 41.0891H24.0738V25.6068C24.0738 24.7782 24.1337 23.9504 24.377 23.3581C25.0432 21.7025 26.5594 19.9879 29.1051 19.9879C32.4396 19.9879 33.7734 22.5303 33.7734 26.2573V41.0891H42.9876V25.1925C42.9876 16.6768 38.4414 12.7144 32.3787 12.7144C27.4075 12.7144 25.225 15.493 24.0125 17.3856H24.0741V13.3649H14.8591C14.9801 15.9664 14.8591 41.0891 14.8591 41.0891H14.8589Z" fill="white"/>
</svg>
