<svg width="274" height="87" viewBox="0 0 274 87" fill="none" xmlns="http://www.w3.org/2000/svg">
<path d="M30.3153 0.736818C29.3246 0.736818 28.7868 0.566785 28.0791 0.481769C21.7386 16.5782 8.51984 45.7388 0.565918 63.0821C1.72646 62.9121 2.80208 62.5437 4.50042 62.5437C6.19877 62.5437 7.10455 62.8837 8.15187 63.0821C11.0957 51.7183 14.6905 43.7551 16.4738 39.6459H39.0901C41.3263 44.5769 44.9777 52.3417 48.1196 63.0821C49.818 62.827 51.5163 62.5437 53.8374 62.5437C56.0736 62.5437 57.5738 62.7987 59.1023 63.0821C58.9041 62.742 39.175 19.242 32.2967 0.45343C31.5608 0.651802 31.1079 0.736818 30.3153 0.736818ZM18.257 35.1968L27.6546 13.0075L37.3068 35.1968H18.257Z" fill="white"/>
<path d="M86.0212 19.157C71.3588 19.157 64.5654 29.529 64.5654 41.8847C64.5654 55.6856 72.8873 64.2723 86.4741 64.2723C93.7204 64.2723 99.1834 62.2036 103.09 58.4345C103.175 57.0176 103.175 55.5723 103.712 53.0785L102.637 52.8234C101.278 54.6938 97.1737 60.0498 88.4272 60.0498C85.8514 60.0498 80.0204 59.7948 75.9161 53.0785C73.5101 48.9694 73.5101 43.8684 73.5101 41.3746H105.581C105.665 36.5286 105.92 19.157 86.0212 19.157ZM73.5667 37.6055C74.3592 28.6505 78.1239 22.756 85.908 22.756C96.6359 22.756 96.6359 34.6583 96.6359 37.6055H73.5667Z" fill="white"/>
<path d="M130.433 37.2372C127.319 36.4437 122.026 34.545 122.026 29.359C122.026 25.5049 124.885 22.6427 130.319 22.6427C131.763 22.6427 134.254 22.8411 136.122 24.173C138.726 25.9583 139.264 28.1971 139.604 29.529H140.764C141.047 26.4968 141.67 24.343 142.548 22.0193C140.481 20.9707 136.915 19.072 130.744 19.072C118.403 19.072 115.261 27.3186 115.261 32.3912C115.261 40.2694 121.601 43.0466 125.451 44.2935C134.82 47.3258 137.877 48.3176 137.877 53.4186C137.877 58.5196 133.49 60.7583 128.848 60.7583C126.894 60.7583 124.545 60.3899 122.337 59.058C119.025 57.0743 118.148 54.6655 117.497 53.1352L116.421 53.3903C116.251 54.5521 115.544 58.4062 114.355 60.56C115.346 61.2684 120.328 64.3007 127.574 64.3007C140 64.3007 144.755 56.7059 144.755 49.9046C144.812 41.0062 138.387 39.3059 130.433 37.2372Z" fill="white"/>
<path d="M176.543 19.072C163.126 19.072 153.813 27.7437 153.813 41.6864C153.813 60.0215 167.032 64.329 176.543 64.329C190.101 64.329 199.952 55.374 199.952 41.1479C199.952 30.2658 193.526 19.072 176.543 19.072ZM176.628 60.7583C168.391 60.7583 162.956 53.872 162.956 41.4313C162.956 38.7391 162.956 22.6427 177.081 22.6427C188.714 22.6427 190.837 34.545 190.837 41.5163C190.837 53.3336 185.205 60.7583 176.628 60.7583Z" fill="white"/>
<path d="M234.711 18.987C224.804 18.987 220.955 25.2499 219.539 27.5736C219.539 25.7033 219.539 24.343 219.907 19.4404C218.662 19.6955 217.133 19.9789 215.52 19.9789C213.822 19.9789 212.378 19.7238 211.133 19.4404C211.416 32.4196 211.585 43.415 211.585 51.5766C211.585 63.2238 211.331 74.9277 210.595 86.5466C212.01 86.1782 213.171 86.0082 215.407 86.0082C217.558 86.0082 218.718 86.1782 220.049 86.5466C219.511 78.3284 219.596 70.1668 219.596 56.1391C221.04 59.8232 225.767 64.4424 234.173 64.4424C245.864 64.4424 254.554 55.5723 254.554 41.4596C254.582 25.5049 243.656 18.987 234.711 18.987ZM232.588 59.8798C228.484 59.8798 225.427 58.2645 223.134 55.4873C221.238 53.2769 219.454 50.3013 219.454 42.4232C219.454 33.5531 221.323 30.3508 223.134 28.1121C225.201 25.5049 228.314 23.4645 233.154 23.4645C238.957 23.4645 245.383 28.3671 245.383 41.8847C245.354 44.7469 245.354 59.8798 232.588 59.8798Z" fill="white"/>
<path d="M98.7305 7.99152H74.0195V10.7971H98.7305V7.99152Z" fill="white"/>
<path d="M267.602 52.285C264.432 52.285 261.771 54.8355 261.771 58.1512C261.771 61.4385 264.376 64.0173 267.631 64.0173C270.858 64.0173 273.462 61.4385 273.462 58.1512C273.433 54.8922 270.886 52.285 267.602 52.285ZM267.602 62.9687C264.885 62.9687 262.875 60.9 262.875 58.1512C262.875 55.459 264.913 53.3336 267.602 53.3336C270.405 53.3336 272.358 55.5157 272.358 58.1512C272.358 60.9284 270.32 62.9687 267.602 62.9687Z" fill="white"/>
<path d="M270.122 56.2808C270.122 54.6938 268.452 54.7222 266.81 54.7222C266.046 54.7222 265.706 54.7222 265.197 54.6938C265.225 55.4023 265.282 56.2241 265.282 57.8678C265.282 59.7665 265.253 60.5883 265.168 61.2968C265.367 61.2684 265.452 61.2401 265.791 61.2401C266.131 61.2401 266.244 61.2968 266.527 61.2968C266.442 59.8515 266.442 59.0864 266.442 58.0662H266.669C267.291 58.803 268.169 59.7098 269.273 61.2968C269.641 61.2684 269.867 61.2401 270.094 61.2401C270.348 61.2401 270.547 61.2968 270.773 61.2968L270.83 61.1834C270.405 60.7583 268.424 58.5196 267.971 57.9245C268.622 57.8961 270.122 57.6694 270.122 56.2808ZM266.442 57.6411C266.442 56.8759 266.442 56.0824 266.471 55.2039C267.546 55.2039 268.848 55.2039 268.848 56.3942C268.848 57.6411 267.15 57.6411 266.442 57.6411Z" fill="white"/>
</svg>
